# Blender v2.78 (sub 0) OBJ File: ''
# www.blender.org
g Cube
v 1.000000 -1.000000 -1.000000
v 1.000000 -1.000000 1.000000
v -1.000000 -1.000000 1.000000
v -1.000000 -1.000000 -1.000000
v 1.000000 1.000000 -0.999999
v 0.999999 1.000000 1.000001
v -1.000000 1.000000 1.000000
v -1.000000 1.000000 -1.000000
v 0.575460 -1.004585 -0.575460
v 0.575460 -1.004585 0.575460
v -0.575460 -1.004585 0.575460
v -0.575459 -1.004585 -0.575460
v 0.575460 1.004585 -0.575459
v -0.575460 1.004585 -0.575459
v -0.575460 1.004585 0.575459
v 0.575459 1.004585 0.575460
v 1.004585 -0.575460 -0.575459
v 1.004586 0.575460 -0.575459
v 1.004585 0.575460 0.575460
v 1.004586 -0.575460 0.575460
v 0.575459 -0.575460 1.004585
v 0.575459 0.575460 1.004586
v -0.575460 0.575460 1.004585
v -0.575460 -0.575460 1.004585
v -1.004586 -0.575460 0.575459
v -1.004586 0.575460 0.575459
v -1.004585 0.575460 -0.575460
v -1.004585 -0.575460 -0.575460
v 0.575460 0.575460 -1.004585
v 0.575460 -0.575460 -1.004585
v -0.575459 -0.575460 -1.004586
v -0.575459 0.575460 -1.004585
v 0.768958 -1.000000 -0.768958
v 0.768958 -1.000000 0.768958
v -0.768958 -1.000000 -0.768959
v -0.768958 -1.000000 0.768958
v 0.768959 1.000000 -0.768958
v -0.768958 1.000000 -0.768958
v 0.768958 1.000000 0.768959
v -0.768959 1.000000 0.768958
v 1.000000 -0.768958 -0.768958
v 1.000000 0.768958 -0.768958
v 1.000000 -0.768958 0.768958
v 0.999999 0.768958 0.768959
v 0.768958 -0.768958 1.000000
v 0.768958 0.768958 1.000000
v -0.768958 -0.768958 1.000000
v -0.768959 0.768958 1.000000
v -1.000000 -0.768958 0.768958
v -1.000000 0.768958 0.768958
v -1.000000 -0.768958 -0.768959
v -1.000000 0.768958 -0.768958
v 0.768958 -0.768958 -1.000000
v 0.768959 0.768958 -1.000000
v -0.768958 0.768958 -1.000000
v -0.768958 -0.768958 -1.000000
vt 0.0385 0.7052
vt 0.3333 0.6667
vt 0.0000 0.6667
vt 0.2948 0.7052
vt 0.3333 1.0000
vt 0.2948 0.9615
vt 0.0000 1.0000
vt 0.0385 0.9615
vt 0.2948 0.3718
vt 0.3333 0.6667
vt 0.3333 0.3333
vt 0.2948 0.6282
vt 0.0000 0.6667
vt 0.0385 0.3718
vt 0.0000 0.3333
vt 0.6282 0.2948
vt 0.6667 0.3333
vt 0.3718 0.0385
vt 0.3333 0.0000
vt 0.6667 0.0000
vt 0.6282 0.0385
vt 0.0385 0.2948
vt 0.0000 0.0000
vt 0.0000 0.3333
vt 0.2948 0.0385
vt 0.3333 0.0000
vt 0.3333 0.3333
vt 0.9615 0.2948
vt 0.6667 0.3333
vt 1.0000 0.3333
vt 0.7052 0.2948
vt 0.6667 0.0000
vt 0.9615 0.0385
vt 1.0000 0.0000
vt 0.3718 0.3718
vt 0.6282 0.3718
vt 0.6667 0.6667
vt 0.3718 0.6282
vt 0.0385 0.6282
vt 0.3718 0.2948
vt 0.0385 0.0385
vt 0.2948 0.2948
vt 0.7052 0.0385
vt 0.6282 0.6282
vt 0.6246 0.0421
vt 0.3754 0.2912
vt 0.6246 0.2912
vt 0.2912 0.3754
vt 0.0421 0.6246
vt 0.2912 0.6246
vt 0.7088 0.0421
vt 0.9579 0.2912
vt 0.9579 0.0421
vt 0.0421 0.7088
vt 0.2912 0.9579
vt 0.2912 0.7088
vt 0.6246 0.6246
vt 0.3754 0.3754
vt 0.3754 0.6246
vt 0.0421 0.0421
vt 0.2912 0.2912
vt 0.2912 0.0421
vt 0.3335 0.3331
vt 0.6665 0.3331
vt 0.3335 0.0002
vt 0.3754 0.0421
vt 0.6665 0.0002
vt 0.0002 0.6665
vt 0.3331 0.6665
vt 0.0002 0.3335
vt 0.0421 0.3754
vt 0.3331 0.3335
vt 0.9998 0.3331
vt 0.9998 0.0002
vt 0.7088 0.2912
vt 0.6669 0.0002
vt 0.3331 0.9998
vt 0.0002 0.6669
vt 0.0421 0.9579
vt 0.3335 0.3335
vt 0.3335 0.6665
vt 0.6665 0.3335
vt 0.6246 0.3754
vt 0.6665 0.6665
vt 0.3331 0.3331
vt 0.3331 0.0002
vt 0.0002 0.3331
vt 0.0421 0.2912
vt 0.0002 0.0002
vt 0.6669 0.3331
vt 0.3331 0.6669
vt 0.0002 0.9998
vn 0.0000 1.0000 0.0000
vn 0.0000 -1.0000 0.0000
vn -1.0000 0.0000 -0.0000
vn 0.0000 0.0000 -1.0000
vn 1.0000 0.0000 0.0000
vn 0.0000 -0.0000 1.0000
vn -0.0237 0.9997 0.0000
vn -0.0000 0.9997 0.0237
vn 0.0000 0.9997 -0.0237
vn 0.0237 0.9997 0.0000
vn -0.0000 -0.9997 0.0237
vn -0.0237 -0.9997 -0.0000
vn 0.0237 -0.9997 0.0000
vn 0.0000 -0.9997 -0.0237
vn -0.9997 0.0000 0.0237
vn -0.9997 0.0237 0.0000
vn -0.9997 -0.0237 -0.0000
vn -0.9997 -0.0000 -0.0237
vn -0.0237 0.0000 -0.9997
vn 0.0000 0.0237 -0.9997
vn 0.0000 -0.0237 -0.9997
vn 0.0237 -0.0000 -0.9997
vn 0.9997 -0.0000 -0.0237
vn 0.9997 0.0237 0.0000
vn 0.9997 -0.0237 0.0000
vn 0.9997 0.0000 0.0237
vn -0.0237 -0.0000 0.9997
vn -0.0000 -0.0237 0.9997
vn -0.0000 0.0237 0.9997
vn 0.0237 -0.0000 0.9997
s off
f 33/1/1 2/2/1 1/3/1
f 34/4/1 3/5/1 2/2/1
f 36/6/1 4/7/1 3/5/1
f 35/8/1 1/3/1 4/7/1
f 37/9/2 8/10/2 5/11/2
f 38/12/2 7/13/2 8/10/2
f 7/13/2 39/14/2 6/15/2
f 6/15/2 37/9/2 5/11/2
f 41/16/3 5/11/3 1/17/3
f 5/11/3 44/18/3 6/19/3
f 44/18/3 2/20/3 6/19/3
f 43/21/3 1/17/3 2/20/3
f 45/22/4 6/23/4 2/24/4
f 6/23/4 48/25/4 7/26/4
f 48/25/4 3/27/4 7/26/4
f 3/27/4 45/22/4 2/24/4
f 49/28/5 7/29/5 3/30/5
f 50/31/5 8/32/5 7/29/5
f 8/32/5 51/33/5 4/34/5
f 51/33/5 3/30/5 4/34/5
f 54/35/6 1/17/6 5/11/6
f 53/36/6 4/37/6 1/17/6
f 4/37/6 55/38/6 8/10/6
f 55/38/6 5/11/6 8/10/6
f 33/1/1 34/4/1 2/2/1
f 34/4/1 36/6/1 3/5/1
f 36/6/1 35/8/1 4/7/1
f 35/8/1 33/1/1 1/3/1
f 37/9/2 38/12/2 8/10/2
f 38/12/2 40/39/2 7/13/2
f 7/13/2 40/39/2 39/14/2
f 6/15/2 39/14/2 37/9/2
f 41/16/3 42/40/3 5/11/3
f 5/11/3 42/40/3 44/18/3
f 44/18/3 43/21/3 2/20/3
f 43/21/3 41/16/3 1/17/3
f 45/22/4 46/41/4 6/23/4
f 6/23/4 46/41/4 48/25/4
f 48/25/4 47/42/4 3/27/4
f 3/27/4 47/42/4 45/22/4
f 49/28/5 50/31/5 7/29/5
f 50/31/5 52/43/5 8/32/5
f 8/32/5 52/43/5 51/33/5
f 51/33/5 49/28/5 3/30/5
f 54/35/6 53/36/6 1/17/6
f 53/36/6 56/44/6 4/37/6
f 4/37/6 56/44/6 55/38/6
f 55/38/6 54/35/6 5/11/6
f 12/45/1 10/46/1 9/47/1
f 16/48/2 14/49/2 13/50/2
f 20/51/3 18/52/3 17/53/3
f 24/54/4 22/55/4 21/56/4
f 28/57/5 26/58/5 25/59/5
f 32/60/6 30/61/6 29/62/6
f 34/63/7 9/47/7 10/46/7
f 33/64/8 12/45/8 9/47/8
f 36/65/9 10/46/9 11/66/9
f 35/67/10 11/66/10 12/45/10
f 38/68/11 13/50/11 14/49/11
f 37/69/12 16/48/12 13/50/12
f 40/70/13 14/49/13 15/71/13
f 39/72/14 15/71/14 16/48/14
f 42/73/15 17/53/15 18/52/15
f 41/74/16 20/51/16 17/53/16
f 19/75/17 42/73/17 18/52/17
f 43/76/18 19/75/18 20/51/18
f 46/77/19 21/56/19 22/55/19
f 21/56/20 47/78/20 24/54/20
f 23/79/21 46/77/21 22/55/21
f 47/78/22 23/79/22 24/54/22
f 50/80/23 25/59/23 26/58/23
f 49/81/24 28/57/24 25/59/24
f 52/82/25 26/58/25 27/83/25
f 51/84/26 27/83/26 28/57/26
f 53/85/27 29/62/27 30/61/27
f 54/86/28 32/60/28 29/62/28
f 56/87/29 30/61/29 31/88/29
f 55/89/30 31/88/30 32/60/30
f 12/45/1 11/66/1 10/46/1
f 16/48/2 15/71/2 14/49/2
f 20/51/3 19/75/3 18/52/3
f 24/54/4 23/79/4 22/55/4
f 28/57/5 27/83/5 26/58/5
f 32/60/6 31/88/6 30/61/6
f 34/63/7 33/64/7 9/47/7
f 33/64/8 35/67/8 12/45/8
f 36/65/9 34/63/9 10/46/9
f 35/67/10 36/65/10 11/66/10
f 38/68/11 37/69/11 13/50/11
f 37/69/12 39/72/12 16/48/12
f 40/70/13 38/68/13 14/49/13
f 39/72/14 40/70/14 15/71/14
f 42/73/15 41/74/15 17/53/15
f 41/74/16 43/76/16 20/51/16
f 19/75/17 44/90/17 42/73/17
f 43/76/18 44/90/18 19/75/18
f 46/77/19 45/91/19 21/56/19
f 21/56/20 45/91/20 47/78/20
f 23/79/21 48/92/21 46/77/21
f 47/78/22 48/92/22 23/79/22
f 50/80/23 49/81/23 25/59/23
f 49/81/24 51/84/24 28/57/24
f 52/82/25 50/80/25 26/58/25
f 51/84/26 52/82/26 27/83/26
f 53/85/27 54/86/27 29/62/27
f 54/86/28 55/89/28 32/60/28
f 56/87/29 53/85/29 30/61/29
f 55/89/30 56/87/30 31/88/30
